<svg viewBox="0 0 160 160" version="1.1" id="svg_null"><g id="root" stroke="none" stroke-width="1" fill="none" fill-rule="evenodd"><rect id="background.accent" fill="#ffffff" x="0" y="0" width="160" height="160"></rect><path d="M32.569 64.522l41.855 -19.874c3.528 -1.676 7.624 -1.676 11.152 0l41.855 19.874c2.79 1.325 4.569 4.138 4.569 7.227l0 37.251c0 4.418 -3.582 8 -8 8l-88 0c-4.418 0 -8 -3.582 -8 -8l0 -37.251c0 -3.09 1.778 -5.902 4.569 -7.227z" id="shape.secondary" fill="#90caf9"></path><rect id="icon.primary" x="67" y="57" width="26" height="26" display="none" fill="#2196f3"></rect><svg xmlns="http://www.w3.org/2000/svg" xmlns:xlink="http://www.w3.org/1999/xlink" viewBox="0 0 50 50" version="1.1" fill="#2196f3" id="svg_icon.primary" x="67" y="57" width="26" height="26"><g id="surface1"><path style=" " d="M 15 3.976563 C 11.675781 3.976563 8.351563 5.25 5.800781 7.800781 C 0.699219 12.902344 0.699219 21.097656 5.800781 26.199219 L 8.867188 29.265625 C 8.824219 29.476563 8.800781 29.6875 8.800781 29.902344 C 8.800781 30.699219 9.097656 31.398438 9.699219 32 L 11.097656 33.402344 C 11.582031 33.980469 12.347656 34.273438 13.125 34.292969 C 13.175781 34.980469 13.460938 35.660156 14 36.199219 L 15.402344 37.597656 C 15.949219 38.148438 16.589844 38.433594 17.308594 38.480469 C 17.328125 39.246094 17.621094 39.921875 18.199219 40.5 L 19.597656 41.902344 C 20.082031 42.480469 20.847656 42.773438 21.621094 42.792969 C 21.664063 43.511719 21.949219 44.148438 22.5 44.699219 L 23.902344 46.097656 C 24.5 46.699219 25.199219 47 26 47 C 26.699219 47 27.5 46.699219 28.097656 46.097656 L 31.097656 43.097656 C 31.613281 42.628906 31.890625 42.011719 31.96875 41.363281 C 32.613281 41.285156 33.195313 41.003906 33.699219 40.5 L 35.5 38.699219 C 36.039063 38.160156 36.324219 37.480469 36.375 36.792969 C 37.152344 36.773438 37.917969 36.480469 38.402344 35.902344 L 39.800781 34.5 C 40.363281 33.984375 40.648438 33.292969 40.6875 32.582031 C 41.421875 32.539063 42.144531 32.246094 42.699219 31.597656 L 44.097656 30.199219 C 45.214844 29.175781 45.28125 27.46875 44.320313 26.265625 C 46.644531 23.878906 48 20.636719 48 17.199219 C 48 13.699219 46.699219 10.300781 44.199219 7.898438 C 39.097656 2.800781 30.800781 2.800781 25.699219 7.800781 L 24.949219 8.550781 L 24.199219 7.800781 C 21.648438 5.25 18.324219 3.976563 15 3.976563 Z M 15 6 C 17.800781 6 20.601563 7.097656 22.800781 9.199219 L 23.5 9.898438 L 18.402344 15 C 16.601563 16.800781 16.601563 19.699219 18.402344 21.5 C 19.300781 22.398438 20.5 22.902344 21.699219 22.902344 C 22.898438 22.902344 24 22.5 24.902344 21.597656 L 30.894531 15.605469 L 42.597656 27.5 C 43 27.898438 43 28.5 42.597656 28.902344 L 41.199219 30.300781 C 40.800781 30.699219 40.199219 30.699219 39.800781 30.300781 L 33.699219 24.300781 C 33.300781 23.902344 32.699219 23.902344 32.300781 24.300781 C 31.902344 24.699219 31.902344 25.300781 32.300781 25.699219 L 38.402344 31.699219 C 38.800781 32.097656 38.800781 32.699219 38.402344 33.097656 L 37 34.5 C 36.601563 34.898438 36 34.898438 35.597656 34.5 L 29.597656 28.5 C 29.386719 28.285156 29.117188 28.195313 28.847656 28.207031 C 28.582031 28.195313 28.3125 28.285156 28.097656 28.5 C 27.699219 28.898438 27.699219 29.5 28.097656 29.902344 L 34.097656 35.902344 C 34.300781 36.101563 34.402344 36.300781 34.402344 36.597656 C 34.402344 36.898438 34.300781 37.101563 34.097656 37.300781 L 32.300781 39.097656 C 32.070313 39.328125 31.777344 39.410156 31.496094 39.378906 C 31.382813 39.210938 31.25 39.050781 31.097656 38.902344 L 29.699219 37.5 C 29.167969 36.96875 28.429688 36.703125 27.683594 36.683594 C 27.644531 35.972656 27.359375 35.257813 26.800781 34.699219 L 25.402344 33.300781 C 24.886719 32.742188 24.199219 32.453125 23.492188 32.417969 C 23.472656 31.652344 23.179688 30.980469 22.597656 30.402344 L 21.199219 29 C 20.667969 28.46875 19.929688 28.203125 19.183594 28.183594 C 19.144531 27.472656 18.859375 26.757813 18.300781 26.199219 L 16.902344 24.800781 C 15.800781 23.601563 13.898438 23.601563 12.699219 24.800781 L 9.949219 27.550781 L 7.199219 24.800781 C 2.898438 20.5 2.898438 13.5 7.199219 9.199219 C 9.398438 7.097656 12.199219 6 15 6 Z M 34.902344 6.101563 C 37.699219 6.101563 40.5 7.199219 42.699219 9.300781 L 42.800781 9.398438 C 44.902344 11.5 46 14.199219 46 17.199219 C 46 20.03125 44.945313 22.761719 42.941406 24.84375 L 31.699219 13.597656 C 31.679688 13.582031 31.65625 13.574219 31.640625 13.558594 C 31.621094 13.539063 31.617188 13.515625 31.597656 13.5 C 31.199219 13.101563 30.597656 13.101563 30.199219 13.5 L 23.5 20.199219 C 22.5 21.199219 20.800781 21.199219 19.800781 20.199219 C 19.300781 19.699219 19 19 19 18.300781 C 19 17.601563 19.300781 16.902344 19.800781 16.402344 L 25.550781 10.652344 L 25.597656 10.699219 L 27.097656 9.300781 C 29.199219 7.199219 32.101563 6.101563 34.902344 6.101563 Z M 14.902344 25.800781 C 15.101563 25.800781 15.398438 25.898438 15.597656 26.097656 L 17 27.5 C 17.398438 27.898438 17.398438 28.5 17 28.902344 L 14 31.902344 C 13.601563 32.300781 13 32.300781 12.597656 31.902344 L 11.199219 30.5 C 11 30.300781 10.902344 30.101563 10.902344 29.800781 C 10.902344 29.5 11 29.300781 11.199219 29.097656 L 14.199219 26.097656 C 14.398438 25.898438 14.601563 25.800781 14.902344 25.800781 Z M 19.097656 30.097656 C 19.398438 30.097656 19.601563 30.199219 19.800781 30.402344 L 21.199219 31.800781 C 21.398438 32 21.5 32.199219 21.5 32.5 C 21.5 32.800781 21.398438 33 21.199219 33.199219 L 18.199219 36.199219 C 17.800781 36.597656 17.199219 36.597656 16.800781 36.199219 L 15.402344 34.800781 C 15 34.402344 15 33.800781 15.402344 33.402344 L 18.402344 30.402344 C 18.601563 30.199219 18.800781 30.097656 19.097656 30.097656 Z M 23.339844 34.300781 C 23.601563 34.300781 23.851563 34.398438 24 34.597656 L 25.402344 36 C 25.800781 36.398438 25.800781 37 25.402344 37.402344 L 22.402344 40.402344 C 22 40.800781 21.398438 40.800781 21 40.402344 L 19.597656 39 C 19.398438 38.800781 19.300781 38.601563 19.300781 38.300781 C 19.300781 38 19.398438 37.800781 19.597656 37.597656 L 22.597656 34.597656 C 22.800781 34.398438 23.074219 34.300781 23.339844 34.300781 Z M 27.597656 38.597656 C 27.898438 38.597656 28.101563 38.699219 28.300781 38.902344 L 29.699219 40.300781 C 29.898438 40.5 30 40.699219 30 41 C 30 41.300781 29.898438 41.5 29.699219 41.699219 L 26.699219 44.699219 C 26.300781 45.097656 25.699219 45.097656 25.300781 44.699219 L 23.902344 43.300781 C 23.699219 43.101563 23.597656 42.898438 23.597656 42.597656 C 23.597656 42.300781 23.699219 42.101563 23.902344 41.902344 L 26.902344 38.902344 C 27.101563 38.699219 27.300781 38.597656 27.597656 38.597656 Z "></path></g></svg><g id="group" transform="translate(39.000000, 90.000000)"><rect id="Rectangle" x="0" y="0" width="82" height="21"></rect><text id="headerText.primary" font-family="Quicksand" font-size="18" font-weight="500" letter-spacing=".81" fill="#2196f3" data-text-alignment="C" font-style="normal"><tspan x="1.1233253479003906" y="16.5">uniEcard</tspan></text></g><path d="M98 79l22 0l0 3l-22 0l0 -3zm-58 0l22 0l0 3l-22 0l0 -3z" id="shape.primary" fill="#2196f3"></path></g></svg>