<svg version="1.1" xmlns="http://www.w3.org/2000/svg" xmlns:xlink="http://www.w3.org/1999/xlink" preserveAspectRatio="xMidYMid meet" viewBox="621 292 125 144"><g data-item-type="text" data-item="Business" id="logo__item--business" class="logo__item">
                <g class="logo__item__inner" transform="translate(631.4609375 432.80476043130966) scale(1 1) rotate(0 0 0)">
                    <text data-part-id="logo__item--business" dy="0" dominant-baseline="auto" alignment-baseline="auto" font-family="Yellowtail" font-size="32px" fill="#6CC6E9" letter-spacing="0" font-weight="normal" font-style="normal" data-font-family="Yellowtail" data-font-weight="normal" data-font-style="normal" data-ttf-url="/builder_assets/fontsttf/font-montserrat-bold-normal.ttf" data-font-filename="yellowtail-normal-normal">uniEcard</text>
                </g>
            </g><g data-item-type="image" data-item="Image" data-logo-item="" id="logo__item--logo_0" class="logo__item">
    <g class="logo__item__inner" transform="translate(615.5303982815798 278.5) scale(0.9107099369071839 0.9107099369071839) rotate(0 0 0)">
        
<g>
	<ellipse fill="#f1b6a8" cx="37" cy="82.8" rx="2.2" ry="2.4" data-part-id="logo__item--logo_0__0"></ellipse>
	<path fill="#f1b6a8" d="M68.1,120.9c-15.8-0.4-19.2-3.4-20-4.9c-0.3-0.6-0.2-0.9-0.2-0.9s1,0.4,2.6,1c2.7,1,7.1,2.3,11.4,2.4   c5.6,0.2,25.6,1.1,36.6,10c-4.1-4.9-11.8-11.7-25.4-16.1c-7.2-2.3-13.6-3.9-19-5.5c-4.6-2.4-9.4-7.9-6.8-20.1   c2.5-11.7,15.5-12,15.5-12s-12.3-5-17,4.1C41.1,88,32.6,92.4,32,84.2c-0.1-0.8-0.1-1.5-0.1-2.2c2.7-13.4,21.9-24.5,41.7-15.5   c0,0-25.7-16.8-43.3-1.3C12.6,80.9,15.6,109.1,37,120c19.2,9.8,50.4,5.8,62.2,12c0-0.2-0.1-0.3-0.1-0.5   C94.5,128,83.8,121.3,68.1,120.9z" data-part-id="logo__item--logo_0__1"></path>
	
		<ellipse transform="matrix(0.6584 0.7527 -0.7527 0.6584 79.2566 -68.877)" fill="#dc8cdb" cx="115.5" cy="52.9" rx="2.4" ry="2.2" data-part-id="logo__item--logo_0__2"></ellipse>
	<path fill="#dc8cdb" d="M51.3,54c12.6-0.4,12.6-2.5,12.6-2.5S45.9,52.3,45,44.3c-0.8-8,18.1,0.8,18.1,0.8s-12.2-14.7-21.9-8.8   C31.6,42.2,38.7,54.4,51.3,54z" data-part-id="logo__item--logo_0__3"></path>
	<path fill="#dc8cdb" d="M106.1,34.5c-23.5,1.1-30.2,31.1-30.2,31.1c9.3-23.7,37-27.1,45.4-13c0.3,0.4,0.5,0.9,0.7,1.3   c1.1,4-3.6,5-11.8,3.2c-13.2-2.9-19.5,6.8-19.5,6.8s8.3-8.6,23.2-0.4c0.5,0.3,0.9,0.5,1.3,0.8l0,0c0,0,0.1,0,0.1,0.1   c0,0,0.1,0,0.1,0.1c0,0,0.1,0,0.1,0.1c0.1,0.1,0.3,0.2,0.5,0.4c1.8,1.4,5.6,5.2,3.6,12.7c-3,5.7-7.2,12.3-11.7,20.6   c-4.8,9-6.6,16.8-7,22.9c2.2-6.3,6.3-14.3,13.1-20.5c2.5-2.3,4.6-4.4,6.2-6.4c5.4-6.4,6.5-11,6.5-12.4c0-1.9,2.4-4,2.4-0.5   c0,1.4-0.4,3-1.6,5.2c-1.8,3.4-5.6,8.2-13,15.4c-11.7,11.4-12.2,29.9-12.2,29.9l0.1,0.2c2.3-12.7,29.5-32.4,36.7-53.6   C147.1,55.7,129.6,33.4,106.1,34.5z" data-part-id="logo__item--logo_0__4"></path>
	<linearGradient id="logo__item--logo_0__5" gradientUnits="objectBoundingBox" x1="0.5" y1="0" x2="0.5" y2="1"><stop offset="0" style="stop-color:#333333"></stop><stop offset="1" style="stop-color:#999999"></stop></linearGradient><path fill="#dc8cdb" d="M43.3,54.4l-5-2.1c0,0-18.9-2.5-29,15.6l8.4-1.7l-1.3,12.2C16.4,78.4,22.7,57.7,43.3,54.4z" data-part-id="logo__item--logo_0__5"></path>
	<path fill="#dc8cdb" d="M130.3,35.8l-8.7-8.6l7.6-4c-19.3-7.6-32.3,6.3-32.3,6.3l-2.6,4.8C112.4,23.9,130.3,35.8,130.3,35.8z" data-part-id="logo__item--logo_0__6"></path>
	<path fill="#dc8cdb" d="M71.1,57.7l1.3,0.4c2.5,0.4,6.7-8,2.5-12.2c-4.2-4.2-11.8-2.9-10.9,5.5C64.8,59.8,71.1,57.7,71.1,57.7z" data-part-id="logo__item--logo_0__7"></path>
	<path fill="#dc8cdb" d="M86.6,27.6c4.4,6.7-10.1,17.5-10.1,17.5s1.3,1.6,11.4-6c10-7.7,7.8-21.6-3.4-20.1   c-11.2,1.6-11.3,20.7-11.3,20.7S82.2,20.9,86.6,27.6z" data-part-id="logo__item--logo_0__8"></path>
</g>

    </g>
</g></svg>